<svg width="40" height="41" viewBox="0 0 40 41" fill="none" xmlns="http://www.w3.org/2000/svg">
<rect y="0.5" width="40" height="40" rx="8" fill="#F3F4F5"/>
<path d="M27.4981 24.1901V26.4401C27.499 26.6489 27.4562 26.8557 27.3725 27.0471C27.2888 27.2385 27.1661 27.4103 27.0122 27.5515C26.8583 27.6927 26.6765 27.8002 26.4787 27.8671C26.2808 27.934 26.0711 27.9589 25.8631 27.9401C23.5552 27.6893 21.3384 26.9007 19.3906 25.6376C17.5785 24.4861 16.0421 22.9497 14.8906 21.1376C13.6231 19.181 12.8343 16.9533 12.5881 14.6351C12.5694 14.4277 12.594 14.2186 12.6605 14.0213C12.727 13.8239 12.8338 13.6426 12.9742 13.4888C13.1146 13.335 13.2855 13.2121 13.476 13.128C13.6665 13.0438 13.8724 13.0003 14.0806 13.0001H16.3306C16.6946 12.9965 17.0475 13.1254 17.3234 13.3627C17.5994 13.6001 17.7797 13.9297 17.8306 14.2901C17.9256 15.0101 18.1017 15.7171 18.3556 16.3976C18.4565 16.666 18.4784 16.9578 18.4185 17.2382C18.3587 17.5187 18.2198 17.7762 18.0181 17.9801L17.0656 18.9326C18.1333 20.8102 19.688 22.3649 21.5656 23.4326L22.5181 22.4801C22.722 22.2784 22.9795 22.1395 23.26 22.0796C23.5404 22.0198 23.8322 22.0417 24.1006 22.1426C24.7811 22.3965 25.4881 22.5726 26.2081 22.6676C26.5724 22.719 26.9052 22.9025 27.143 23.1832C27.3809 23.4639 27.5072 23.8223 27.4981 24.1901Z" fill="#0D68FD"/>
<path d="M21.5391 16C22.2767 16.1455 22.9536 16.5093 23.4818 17.0442C24.0101 17.5792 24.3654 18.2606 24.5016 19" fill="#0D68FD"/>
<path d="M21.5391 13C23.0678 13.1611 24.4957 13.8391 25.5867 14.9219C26.6777 16.0048 27.3665 17.4276 27.5391 18.955M21.5391 16C22.2767 16.1455 22.9536 16.5093 23.4818 17.0442C24.0101 17.5792 24.3654 18.2606 24.5016 19" stroke="#0D68FD" stroke-width="2" stroke-linecap="round" stroke-linejoin="round"/>
</svg>
