<svg width="40" height="40" viewBox="0 0 40 40" fill="none" xmlns="http://www.w3.org/2000/svg">
<g clip-path="url(#clip0_2069_7933)">
<rect width="40" height="40" rx="8" fill="#27A7E7"/>
<path fill-rule="evenodd" clip-rule="evenodd" d="M12.2021 19.2104C16.8661 17.1652 19.9838 15.8433 21.5551 15.1949C25.9947 13.3492 26.9176 13.0249 27.5162 13C27.6409 13 27.9402 13.0249 28.1397 13.1746C28.2894 13.2993 28.3392 13.4739 28.3642 13.5986C28.3891 13.7233 28.4141 13.9977 28.3891 14.2221C28.1397 16.7412 27.1171 22.9018 26.5684 25.7202C26.3439 26.9174 25.895 27.3164 25.471 27.3663C24.5481 27.4412 23.8248 26.7428 22.9269 26.1691C21.5302 25.2463 20.7321 24.6726 19.3603 23.7747C17.789 22.7272 18.8116 22.1535 19.7095 21.2307C19.9339 20.9813 24.0493 17.265 24.1241 16.9158C24.1241 16.8659 24.1491 16.7163 24.0493 16.6415C23.9495 16.5666 23.8248 16.5916 23.7251 16.6165C23.5754 16.6415 21.3307 18.138 16.9659 21.0811C16.3174 21.53 15.7438 21.7295 15.22 21.7295C14.6463 21.7295 13.5489 21.4053 12.7258 21.1309C11.7282 20.8067 10.93 20.6321 11.0049 20.0834C11.0547 19.809 11.4538 19.5097 12.2021 19.2104Z" fill="#FCFCFC"/>
</g>
<defs>
<clipPath id="clip0_2069_7933">
<rect width="40" height="40" rx="10" fill="white"/>
</clipPath>
</defs>
</svg>
