<svg width="40" height="41" viewBox="0 0 40 41" fill="none" xmlns="http://www.w3.org/2000/svg">
<path d="M14.1764 1.49023H25.8398C36.4932 1.49023 39.0081 4.02489 39.0081 14.6784V26.3417C39.0081 36.9952 36.4734 39.51 25.82 39.51H14.1566C3.50313 39.51 0.988281 36.9754 0.988281 26.3219V14.6586C0.988281 4.02489 3.52293 1.49023 14.1764 1.49023Z" fill="#357AF3"/>
<mask id="mask0_2069_7827" style="mask-type:luminance" maskUnits="userSpaceOnUse" x="0" y="1" width="40" height="39">
<path d="M14.1764 1.49023H25.8398C36.4932 1.49023 39.0081 4.02489 39.0081 14.6784V26.3417C39.0081 36.9952 36.4734 39.51 25.82 39.51H14.1566C3.50313 39.51 0.988281 36.9754 0.988281 26.3219V14.6586C0.988281 4.02489 3.52293 1.49023 14.1764 1.49023Z" fill="white"/>
</mask>
<g mask="url(#mask0_2069_7827)">
<path d="M0 0.5H40V40.5H0V0.5Z" fill="#357AF3"/>
</g>
<path fill-rule="evenodd" clip-rule="evenodd" d="M32.1197 14.5792C32.2979 13.9852 32.1197 13.5693 31.288 13.5693H28.5157C27.8028 13.5693 27.486 13.9456 27.3078 14.3614C27.3078 14.3614 25.9018 17.807 23.9018 20.0248C23.2484 20.6782 22.9711 20.8763 22.6147 20.8763C22.4365 20.8763 22.1791 20.6782 22.1791 20.0842V14.5792C22.1791 13.8664 21.981 13.5693 21.387 13.5693H17.0306C16.5949 13.5693 16.3177 13.906 16.3177 14.203C16.3177 14.8763 17.3078 15.0347 17.4266 16.8961V20.9753C17.4266 21.8664 17.2682 22.0248 16.9117 22.0248C15.981 22.0248 13.684 18.5792 12.3375 14.6188C12.0603 13.8862 11.8028 13.5693 11.09 13.5693H8.31768C7.5256 13.5693 7.36719 13.9456 7.36719 14.3614C7.36719 15.0941 8.29788 18.7377 11.7434 23.5495C14.0405 26.8367 17.2682 28.6188 20.1989 28.6188C21.9612 28.6188 22.1791 28.2228 22.1791 27.5495V25.0545C22.1791 24.2624 22.3375 24.104 22.9117 24.104C23.3276 24.104 24.0207 24.302 25.6642 25.8862C27.5454 27.7674 27.8622 28.6188 28.9117 28.6188H31.684C32.4761 28.6188 32.8721 28.2228 32.6345 27.4505C32.3771 26.6782 31.486 25.5495 30.2979 24.203C29.6444 23.4307 28.6741 22.6188 28.3969 22.203C27.981 21.6683 28.0999 21.4307 28.3969 20.9753C28.3969 20.9555 31.783 16.203 32.1197 14.5792Z" fill="#FCFCFC"/>
</svg>
