<svg width="40" height="40" viewBox="0 0 40 40" fill="none" xmlns="http://www.w3.org/2000/svg">
<g clip-path="url(#clip0_2069_7928)">
<rect width="40" height="40" rx="8" fill="#28D146"/>
<path d="M20.5332 12C22.6643 12.0008 24.6651 12.8266 26.1689 14.3252C27.6731 15.8238 28.5008 17.8161 28.5 19.9346C28.4983 24.3058 24.9237 27.8623 20.5332 27.8623H20.5303C19.1972 27.8619 17.8871 27.5292 16.7236 26.8975L12.5 28L13.6299 23.8916C12.9328 22.6895 12.5656 21.3252 12.5664 19.9277C12.568 15.5565 16.1421 12.0002 20.5332 12ZM17.9277 16.2676C17.8049 16.2676 17.6052 16.3172 17.4365 16.5156C17.2677 16.7142 16.793 17.1935 16.793 18.168C16.793 19.1388 17.4467 20.0776 17.543 20.2158L17.5439 20.2178C17.6373 20.3521 18.8419 22.351 20.6855 23.209C21.1242 23.4131 21.4672 23.5347 21.7344 23.626C22.1747 23.7768 22.5757 23.756 22.8926 23.7051C23.2459 23.6481 23.9806 23.2254 24.1338 22.7627C24.2868 22.3004 24.287 21.9042 24.2412 21.8213C24.1954 21.7389 24.0733 21.6879 23.8896 21.5889C23.7059 21.4897 22.8025 21.011 22.6328 20.9443C22.4641 20.8782 22.3412 20.8455 22.2188 21.0439C22.0961 21.2426 21.744 21.6884 21.6367 21.8203C21.5294 21.9526 21.4221 21.9683 21.2383 21.8691C21.0544 21.7699 20.4614 21.5614 19.7588 20.8867C19.2121 20.3613 18.8426 19.7121 18.7354 19.5137C18.6284 19.3155 18.7247 19.2087 18.8164 19.1104C18.899 19.0214 18.9997 18.8783 19.0918 18.7627C19.1839 18.6472 19.2141 18.5644 19.2754 18.4326C19.3367 18.3005 19.3065 18.1851 19.2607 18.0859C19.2148 17.9867 18.8469 17.0107 18.6934 16.6143C18.5443 16.2289 18.3928 16.2807 18.2803 16.2744C18.1731 16.2687 18.0504 16.2676 17.9277 16.2676Z" fill="#FCFCFC"/>
</g>
<defs>
<clipPath id="clip0_2069_7928">
<rect width="40" height="40" rx="10" fill="white"/>
</clipPath>
</defs>
</svg>
